<svg xmlns="http://www.w3.org/2000/svg" viewBox="0 0 120 40" width="120" height="40">
  <!-- Joustava.work Logo - Representing flexibility and work balance -->
  <g fill="#FF6B00">
    <circle cx="20" cy="20" r="10"/>
    <path d="M38,8h10v4h-6v6h5v4h-5v6h6v4H38V8z"/>
    <path d="M52,20c0-7,4-13,10-13s10,6,10,13s-4,13-10,13S52,27,52,20z M56,20c0,5,2,9,6,9s6-4,6-9s-2-9-6-9S56,15,56,20z"/>
    <path d="M74,8h4v8h2c4,0,8,2,8,8s-4,8-8,8h-6V8z M78,28h2c2,0,4-1,4-4s-2-4-4-4h-2V28z"/>
    <path d="M92,20v-4h12v4H92z"/>
    <path d="M108,26c2,0,3.5-1,4-3l3,1c-1,3.5-3.5,6-7,6c-5,0-7-4-7-9v-5c0-5,2-9,7-9c3.5,0,6,2.5,7,6l-3,1c-0.5-2-2-3-4-3c-3,0-3,3-3,5v5C105,23,105,26,108,26z"/>
  </g>
</svg> 